<svg xmlns="http://www.w3.org/2000/svg" width="128" height="128" viewBox="5 -10 128 172.8"><path d="M-3.68 148.454c-3.362-2.212-4.07-6.733-1.71-10.903 2.488-4.39 5.853-8.575 11.11-13.818 5.51-5.494 9.625-8.77 14.944-11.902 1.758-1.035 3.24-1.92 3.293-1.966.053-.047-.462-1.412-1.143-3.034-.682-1.622-1.705-4.7-2.275-6.84-7.9-29.682 4.91-55.427 32.966-66.253 7.36-2.84 14.393-4.086 25.875-4.585 21.01-.912 32.194-2.236 39.494-4.673 9.498-3.173 17.082-8.89 25.528-19.248l1.18-1.45-.245 9.24c-1.06 39.68-9.564 74.988-23.064 95.76-10.514 16.175-23.195 25.477-39.772 29.173-5.512 1.23-16.206 1.528-21.645.606-11.158-1.892-18.785-5.81-26.505-13.618l-4.067-4.114-4.46 3.02c-7.773 5.27-15.818 13.993-19.368 21.004-1.272 2.513-3.832 4.277-6.636 4.574-1.4.148-2.09-.043-3.5-.972zm42.326-45.118c3.478-3.477 8.36-7.117 14.172-10.568 6.147-3.65 8.252-4.683 26.653-13.098 15.47-7.074 24.22-11.614 30.508-15.826 15.94-10.68 24.942-23.68 27.807-40.156.594-3.42.28-3.968-.743-1.295-1.874 4.896-7.898 13.34-12.922 18.112-8.403 7.98-18.394 13.958-41.41 24.772-9.877 4.64-17.744 8.66-22.46 11.474-14.414 8.607-23.852 19.32-27.83 31.592-1.31 4.038-1.068 4.197 1.284.848 1.183-1.684 3.407-4.318 4.942-5.854z" fill="#2ca02c" fill-rule="evenodd"/></svg>
