<svg xmlns="http://www.w3.org/2000/svg" width="600" height="600" viewBox="0 0 600 600"><defs><clipPath id="a"><path d="M0 459h679V0H0v459z"/></clipPath><clipPath id="b"><path d="M282.222 183.168h107.843v-9.373H282.222v9.373z"/></clipPath></defs><g clip-path="url(#a)" transform="matrix(3.34598 0 0 -3.34598 -797.887 1194.43)"><path d="M407.543 327.673c-9.646 10.52-21.47 17.452-36.49 21.233-16.145 4.073-37.6 5.715-67.257 4.557-9.33-.37-65.334-9.117-65.334-9.117l106.507-163.54 54.416 34.82-19.76 25.66c-12.093-15.148-33.543-24.968-48.648-19.838-16.805 5.705-15.154 26.035 1.398 42.406 8.56 8.465 19.24 13.807 28.973 15.598l-47.604 60.55-3.412 4.34s30.67.21 44.66-2.908c28.286-6.3 35.37-23.456 35.37-23.456s-14.51 10.847-47.358 7.21l39.708-48.824c17.623 7.678 27.987 15.105 32.554 22.536 5.132 8.336 2.332 17.805-7.725 28.773" fill="#4183c4"/></g></svg>
