<svg xmlns="http://www.w3.org/2000/svg" viewBox="0 0 600 600" width="600" height="600"><defs><clipPath id="0"><path d="m0 459h679v-459h-679v459"/></clipPath><clipPath><path d="m282.22 183.17h107.84v-9.373h-107.84v9.373"/></clipPath></defs><g transform="translate(0 568)"><g clip-path="url(#0)" transform="matrix(3.34598 0 0-3.34598-797.89 626.43)" fill="#b3b3b3"><path d="m16.699 5.961c-9.646 10.521-21.471 17.452-36.489 21.233-16.15 4.073-37.602 5.714-67.26 4.557-9.329-.369-65.33-9.117-65.33-9.117l106.51-163.54 54.42 34.82-19.761 25.66c-12.09-15.15-33.543-24.967-48.648-19.837-16.805 5.706-15.15 26.04 1.398 42.41 8.559 8.465 19.24 13.807 28.972 15.597l-47.602 60.55-3.412 4.34c0 0 30.671.211 44.66-2.908 28.29-6.299 35.37-23.457 35.37-23.457 0 0-14.51 10.847-47.36 7.211l39.708-48.825c17.624 7.678 27.987 15.11 32.554 22.537 5.132 8.335 2.332 17.804-7.725 28.773" transform="translate(390.84 321.71)"/></g><g transform="matrix(.54464.83867-.83867.54464 0 0)" fill="#fff"><path d="m-227.29-402.22h-10.767l-31.03-58.54v58.54h-8.13v-65.43h13.491l28.3 53.44v-53.44h8.13v65.43"/><path d="m-151.11-460.14q3.999 4.395 6.108 10.767 2.153 6.372 2.153 14.458 0 8.09-2.197 14.502-2.153 6.372-6.06 10.635-4.04 4.438-9.58 6.68-5.493 2.241-12.568 2.241-6.899 0-12.568-2.285-5.625-2.285-9.58-6.636-3.955-4.351-6.108-10.679-2.109-6.328-2.109-14.458 0-7.998 2.109-14.326 2.109-6.372 6.152-10.898 3.867-4.307 9.58-6.592 5.757-2.285 12.524-2.285 7.03 0 12.612 2.329 5.625 2.285 9.536 6.548m-.791 25.22q0-12.744-5.713-19.644-5.713-6.943-15.601-6.943-9.976 0-15.688 6.943-5.669 6.899-5.669 19.644 0 12.876 5.801 19.731 5.801 6.812 15.557 6.812 9.756 0 15.513-6.812 5.801-6.855 5.801-19.731"/><path d="m-320.83-312.22h-41.4v-65.43h8.701v57.7h32.695v7.734"/><path d="m-254.23-370.14q3.999 4.395 6.108 10.767 2.153 6.372 2.153 14.458 0 8.09-2.197 14.502-2.153 6.372-6.06 10.635-4.04 4.438-9.58 6.68-5.493 2.241-12.568 2.241-6.899 0-12.568-2.285-5.625-2.285-9.58-6.636-3.955-4.351-6.108-10.679-2.109-6.328-2.109-14.458 0-7.998 2.109-14.326 2.109-6.372 6.152-10.898 3.867-4.307 9.58-6.592 5.757-2.285 12.524-2.285 7.03 0 12.612 2.329 5.625 2.285 9.536 6.548m-.791 25.22q0-12.744-5.713-19.644-5.713-6.943-15.601-6.943-9.976 0-15.688 6.943-5.669 6.899-5.669 19.644 0 12.876 5.801 19.731 5.801 6.812 15.557 6.812 9.756 0 15.513-6.812 5.801-6.855 5.801-19.731"/><path d="m-167.59-317.06q-5.361 2.461-11.733 4.307-6.328 1.802-12.261 1.802-7.646 0-14.02-2.109-6.372-2.109-10.855-6.328-4.526-4.263-6.987-10.635-2.461-6.416-2.461-14.985 0-15.688 9.141-24.741 9.185-9.1 25.18-9.1 5.581 0 11.382 1.362 5.845 1.318 12.568 4.526v10.327h-.791q-1.362-1.055-3.955-2.769-2.593-1.714-5.098-2.856-3.03-1.362-6.899-2.241-3.823-.923-8.701-.923-10.986 0-17.402 7.08-6.372 7.03-6.372 19.07 0 12.7 6.68 19.775 6.68 7.03 18.19 7.03 4.219 0 8.394-.835 4.219-.835 7.383-2.153v-16.04h-17.534v-7.646h26.15v28.08"/><path d="m-93.6-370.14q3.999 4.395 6.108 10.767 2.153 6.372 2.153 14.458 0 8.09-2.197 14.502-2.153 6.372-6.06 10.635-4.04 4.438-9.58 6.68-5.493 2.241-12.568 2.241-6.899 0-12.568-2.285-5.625-2.285-9.58-6.636-3.955-4.351-6.108-10.679-2.109-6.328-2.109-14.458 0-7.998 2.109-14.326 2.109-6.372 6.152-10.898 3.867-4.307 9.58-6.592 5.757-2.285 12.524-2.285 7.03 0 12.612 2.329 5.625 2.285 9.536 6.548m-.791 25.22q0-12.744-5.713-19.644-5.713-6.943-15.601-6.943-9.976 0-15.688 6.943-5.669 6.899-5.669 19.644 0 12.876 5.801 19.731 5.801 6.812 15.557 6.812 9.756 0 15.513-6.812 5.801-6.855 5.801-19.731"/></g></g></svg>
