<svg xmlns="http://www.w3.org/2000/svg" width="48" height="48" viewBox="0 0 48 47.999996"><defs><linearGradient x2="1" gradientUnits="userSpaceOnUse" gradientTransform="matrix(0 -108.8867 -108.8867 0 283.85 414.84)" id="a"><stop offset="0" stop-color="#f57815"/><stop offset=".266" stop-color="#f57815"/><stop offset="1" stop-color="#ef381f"/></linearGradient><linearGradient x2="1" gradientUnits="userSpaceOnUse" gradientTransform="scale(189.084) rotate(-90 2.126 .75)" id="b"><stop offset="0" stop-color="#f57815"/><stop offset=".266" stop-color="#f57815"/><stop offset="1" stop-color="#ef381f"/></linearGradient><linearGradient x2="1" gradientUnits="userSpaceOnUse" gradientTransform="scale(189.084) rotate(-90 2.078 .8)" id="c"><stop offset="0" stop-color="#f57815"/><stop offset=".266" stop-color="#f57815"/><stop offset="1" stop-color="#ef381f"/></linearGradient><linearGradient x2="1" gradientUnits="userSpaceOnUse" gradientTransform="matrix(0 -148.9258 -148.9258 0 283.85 543.88)" id="d"><stop offset="0" stop-color="#f57815"/><stop offset=".266" stop-color="#f57815"/><stop offset="1" stop-color="#ef381f"/></linearGradient><linearGradient x2="1" gradientUnits="userSpaceOnUse" gradientTransform="matrix(0 -117.6758 -117.6758 0 283.85 419.235)" id="e"><stop offset="0" stop-color="#f57815"/><stop offset=".266" stop-color="#f57815"/><stop offset="1" stop-color="#ef381f"/></linearGradient><linearGradient x2="1" gradientUnits="userSpaceOnUse" gradientTransform="matrix(0 -189.084 -189.084 0 209.736 543.88)" id="f"><stop offset="0" stop-color="#f57815"/><stop offset=".266" stop-color="#f57815"/><stop offset="1" stop-color="#ef381f"/></linearGradient><linearGradient x2="1" gradientUnits="userSpaceOnUse" gradientTransform="matrix(0 -189.084 -189.084 0 205.887 543.88)" id="g"><stop offset="0" stop-color="#f57815"/><stop offset=".266" stop-color="#f57815"/><stop offset="1" stop-color="#ef381f"/></linearGradient><linearGradient x2="1" gradientUnits="userSpaceOnUse" gradientTransform="scale(189.084) rotate(-90 2.04 .835)" id="h"><stop offset="0" stop-color="#f57815"/><stop offset=".266" stop-color="#f57815"/><stop offset="1" stop-color="#ef381f"/></linearGradient><linearGradient x2="1" gradientUnits="userSpaceOnUse" gradientTransform="scale(189.084) rotate(-90 2.03 .846)" id="i"><stop offset="0" stop-color="#f57815"/><stop offset=".266" stop-color="#f57815"/><stop offset="1" stop-color="#ef381f"/></linearGradient><linearGradient x2="1" gradientUnits="userSpaceOnUse" gradientTransform="matrix(0 -189.084 -189.084 0 135.576 543.88)" id="j"><stop offset="0" stop-color="#f57815"/><stop offset=".266" stop-color="#f57815"/><stop offset="1" stop-color="#ef381f"/></linearGradient><linearGradient x2="1" gradientUnits="userSpaceOnUse" gradientTransform="matrix(0 -189.084 -189.084 0 278.445 543.88)" id="k"><stop offset="0" stop-color="#f57815"/><stop offset=".266" stop-color="#f57815"/><stop offset="1" stop-color="#ef381f"/></linearGradient><linearGradient x2="1" gradientUnits="userSpaceOnUse" gradientTransform="matrix(0 -189.084 -189.084 0 152.942 543.88)" id="l"><stop offset="0" stop-color="#f57815"/><stop offset=".266" stop-color="#f57815"/><stop offset="1" stop-color="#ef381f"/></linearGradient><linearGradient x2="1" gradientUnits="userSpaceOnUse" gradientTransform="matrix(0 -189.084 -189.084 0 170.45 543.88)" id="m"><stop offset="0" stop-color="#f57815"/><stop offset=".266" stop-color="#f57815"/><stop offset="1" stop-color="#ef381f"/></linearGradient><linearGradient x2="1" gradientUnits="userSpaceOnUse" gradientTransform="matrix(0 -189.084 -189.084 0 187.828 543.88)" id="n"><stop offset="0" stop-color="#f57815"/><stop offset=".266" stop-color="#f57815"/><stop offset="1" stop-color="#ef381f"/></linearGradient><linearGradient x2="1" gradientUnits="userSpaceOnUse" gradientTransform="matrix(0 -70.3125 -70.3125 0 155.625 393.55)" id="o"><stop offset="0" stop-color="#f57815"/><stop offset=".266" stop-color="#f57815"/><stop offset="1" stop-color="#ef381f"/></linearGradient><linearGradient x2="1" gradientUnits="userSpaceOnUse" gradientTransform="matrix(0 -189.084 -189.084 0 296.71 543.88)" id="p"><stop offset="0" stop-color="#f57815"/><stop offset=".266" stop-color="#f57815"/><stop offset="1" stop-color="#ef381f"/></linearGradient><linearGradient x2="1" gradientUnits="userSpaceOnUse" gradientTransform="matrix(0 -189.084 -189.084 0 85.16 543.88)" id="q"><stop offset="0" stop-color="#f57815"/><stop offset=".266" stop-color="#f57815"/><stop offset="1" stop-color="#ef381f"/></linearGradient><linearGradient x2="1" gradientUnits="userSpaceOnUse" gradientTransform="matrix(0 -189.084 -189.084 0 101.26 543.88)" id="r"><stop offset="0" stop-color="#f57815"/><stop offset=".266" stop-color="#f57815"/><stop offset="1" stop-color="#ef381f"/></linearGradient><linearGradient x2="1" gradientUnits="userSpaceOnUse" gradientTransform="matrix(0 -189.084 -189.084 0 118.347 543.88)" id="s"><stop offset="0" stop-color="#f57815"/><stop offset=".266" stop-color="#f57815"/><stop offset="1" stop-color="#ef381f"/></linearGradient><linearGradient x2="1" gradientUnits="userSpaceOnUse" gradientTransform="scale(188.8206) rotate(-90 2.53 .35)" id="t"><stop offset="0" stop-color="#f57815"/><stop offset="0" stop-color="#f57815"/><stop offset="0" stop-color="#f57815"/><stop offset=".263" stop-color="#f57815"/><stop offset="1" stop-color="#ef381f"/></linearGradient></defs><path d="m 283.848,360.384 10e-4,0.009 0,0.005 -10e-4,-0.014 z" fill="url(#a)" transform="matrix(.0882 0 0 -.0882 -2.25 63.63)"/><path d="m 254.802,497.781 -2.304,-92.95 2.305,-44.726 c 0.054,-2.849 2.319,-5.099 5.154,-5.099 l 0,0 c 2.827,0 5.091,2.25 5.153,5.131 l 0,0 0,-0.037 2.582,44.725 -2.582,92.965 c -0.062,2.871 -2.326,5.126 -5.153,5.126 l 0,0 c -2.835,0 -5.1,-2.257 -5.155,-5.135" fill="url(#b)" transform="matrix(.0882 0 0 -.0882 -2.25 63.63)"/><path d="m 236.946,501.309 -2.525,-96.474 2.527,-45.009 c 0.059,-2.643 2.16,-4.737 4.782,-4.737 l 0,0 c 2.612,0 4.711,2.094 4.782,4.76 l 0,0 0,-0.032 2.838,45.018 -2.838,96.479 c -0.071,2.665 -2.17,4.752 -4.782,4.752 l 0,0 c -2.622,0 -4.723,-2.09 -4.784,-4.757" fill="url(#c)" transform="matrix(.0882 0 0 -.0882 -2.25 63.63)"/><path d="m 283.85,360.413 -0.001,-0.015 0.001,0.008 0,0.011 c 0,-10e-4 0,-0.002 0,-0.004" fill="url(#d)" transform="matrix(.0882 0 0 -.0882 -2.25 63.63)"/><path d="m 283.848,360.383 10e-4,0.01 0,0.004 -10e-4,-0.014 z" fill="url(#e)" transform="matrix(.0882 0 0 -.0882 -2.25 63.63)"/><path d="m 209.735,359.113 0.002,0.027 -0.002,-0.027 z" fill="url(#f)" transform="matrix(.0882 0 0 -.0882 -2.25 63.63)"/><path d="m 201.655,500.62 c 0,-0.002 -2.963,-95.771 -2.963,-95.771 l 0,0 2.966,-45.727 c 0.075,-2.227 1.85,-3.987 4.039,-3.987 l 0,0 c 2.177,0 3.95,1.755 4.04,4.005 l 0,0 3.344,45.709 -3.344,95.773 c -0.089,2.25 -1.863,4.012 -4.04,4.012 l 0,0 c -2.189,0 -3.964,-1.764 -4.042,-4.014" fill="url(#g)" transform="matrix(.0882 0 0 -.0882 -2.25 63.63)"/><path d="m 228.053,359.42 -0.001,-0.023 0.002,0.026 c 0,-10e-4 -0.001,-0.002 -0.001,-0.003" fill="url(#h)" transform="matrix(.0882 0 0 -.0882 -2.25 63.63)"/><path d="m 219.231,503.842 -2.744,-98.998 2.747,-45.443 c 0.068,-2.433 2.005,-4.357 4.41,-4.357 l 0,0 c 2.395,0 4.33,1.923 4.409,4.376 l 0,0 3.092,45.42 -3.091,99.004 c -0.079,2.46 -2.014,4.385 -4.41,4.385 l 0,0 c -2.405,0 -4.342,-1.928 -4.413,-4.387" fill="url(#i)" transform="matrix(.0882 0 0 -.0882 -2.25 63.63)"/><path d="m 132.761,452.559 -3.841,-47.669 3.841,-46.116 c 0.107,-1.426 1.207,-2.505 2.557,-2.505 l 0,0 c 1.332,0 2.429,1.079 2.55,2.505 l 0,0 4.363,46.116 -4.363,47.678 c -0.121,1.424 -1.218,2.501 -2.55,2.501 l 0,0 c -1.35,0 -2.45,-1.079 -2.557,-2.51" fill="url(#j)" transform="matrix(.0882 0 0 -.0882 -2.25 63.63)"/><path d="m 275.347,520.044 c -1.504,-0.984 -2.519,-2.683 -2.549,-4.612 l 0,0 -0.02,-1.043 -2.066,-109.536 c 0,-0.066 2.086,-44.465 2.086,-44.465 l 0,0 c 10e-4,-0.063 0.009,-0.126 0.013,-0.188 l 0,0 c 0.062,-1.241 0.533,-2.384 1.286,-3.285 l 0,0 c 1.017,-1.219 2.54,-2.001 4.226,-2.001 l 0,0 c 1.499,0 2.867,0.617 3.867,1.615 l 0,0 c 0.999,0.995 1.632,2.368 1.66,3.884 l 0,0 0.231,4.395 2.096,40.01 -2.327,110.618 c -0.032,1.896 -1.012,3.572 -2.474,4.561 l 0,0 c -0.878,0.595 -1.929,0.943 -3.053,0.943 l 0,0 c -1.092,0 -2.114,-0.331 -2.976,-0.896" fill="url(#k)" transform="matrix(.0882 0 0 -.0882 -2.25 63.63)"/><path d="m 149.776,449.104 -3.625,-44.218 3.625,-46.496 c 0.098,-1.638 1.355,-2.881 2.924,-2.881 l 0,0 c 1.554,0 2.811,1.242 2.925,2.883 l 0,0 4.107,46.494 -4.107,44.236 c -0.112,1.63 -1.37,2.87 -2.925,2.87 l 0,0 c -1.569,0 -2.826,-1.241 -2.924,-2.888" fill="url(#l)" transform="matrix(.0882 0 0 -.0882 -2.25 63.63)"/><path d="m 166.93,476.81 c 0,-0.002 -3.404,-71.942 -3.404,-71.942 l 0,0 3.404,-46.492 c 0.089,-1.815 1.538,-3.25 3.298,-3.25 l 0,0 c 1.744,0 3.191,1.435 3.295,3.26 l 0,0 0,-0.014 3.851,46.496 -3.851,71.945 c -0.104,1.829 -1.551,3.26 -3.295,3.26 l 0,0 c -1.76,0 -3.209,-1.434 -3.298,-3.263" fill="url(#m)" transform="matrix(.0882 0 0 -.0882 -2.25 63.63)"/><path d="m 183.95,493.012 c 0,-0.005 -3.181,-88.395 -3.181,-88.395 l 0,0 3.185,-46.204 c 0.082,-2.021 1.693,-3.617 3.668,-3.617 l 0,0 c 1.957,0 3.566,1.59 3.665,3.624 l 0,0 3.601,46.197 -3.6,88.395 c -0.094,2.039 -1.705,3.635 -3.666,3.635 l 0,0 c -1.975,0 -3.586,-1.596 -3.672,-3.635 m 7.338,-134.581 c 0,0 0,0 0,0" fill="url(#n)" transform="matrix(.0882 0 0 -.0882 -2.25 63.63)"/><path d="m 155.625,358.392 0,-0.006 0.001,0.009 c 0,-0.002 -0.001,-0.002 -0.001,-0.003" fill="url(#o)" transform="matrix(.0882 0 0 -.0882 -2.25 63.63)"/><path d="m 292.89,529.987 c -1.309,-1.08 -2.156,-2.713 -2.18,-4.536 l 0,0 -0.013,-0.608 -2.405,-120.036 1.227,-22.189 1.192,-21.594 c 0.042,-3.197 2.686,-5.835 5.9,-5.835 l 0,0 c 3.203,0 5.847,2.638 5.892,5.881 l 0,0 0,-0.05 0,-10e-4 2.626,43.788 0,10e-4 -2.626,120.652 c -0.028,2.13 -1.189,3.996 -2.892,5.026 l 0,0 c -0.882,0.534 -1.906,0.847 -3,0.847 l 0,0 c -1.406,0 -2.703,-0.506 -3.721,-1.346" fill="url(#p)" transform="matrix(.0882 0 0 -.0882 -2.25 63.63)"/><path d="m 83.122,429.084 -3.183,-24.18 3.183,-23.768 c 0.12,-1.002 0.838,-1.702 1.746,-1.702 l 0,0 c 0.883,0 1.598,0.694 1.743,1.693 l 0,0 3.77,23.777 -3.77,24.189 c -0.144,0.997 -0.86,1.695 -1.743,1.695 l 0,0 c -0.908,0 -1.626,-0.702 -1.746,-1.704" fill="url(#q)" transform="matrix(.0882 0 0 -.0882 -2.25 63.63)"/><path d="m 99.156,444.003 c 0,-0.003 -4.282,-39.099 -4.282,-39.099 l 0,0 4.282,-38.238 c 0.123,-1.023 0.885,-1.765 1.81,-1.765 l 0,0 c 0.918,0 1.66,0.723 1.807,1.756 l 0,0 4.872,38.247 -4.87,39.101 c -0.149,1.039 -0.891,1.758 -1.809,1.758 l 0,0 c -0.925,0 -1.687,-0.74 -1.81,-1.76" fill="url(#r)" transform="matrix(.0882 0 0 -.0882 -2.25 63.63)"/><path d="m 115.888,451.292 c 0,-0.002 -4.063,-46.392 -4.063,-46.392 l 0,0 4.063,-44.699 c 0.115,-1.243 1.033,-2.141 2.183,-2.141 l 0,0 c 1.13,0 2.045,0.898 2.179,2.132 l 0,0 4.618,44.708 -4.615,46.394 c -0.137,1.24 -1.052,2.136 -2.182,2.136 l 0,0 c -1.15,0 -2.068,-0.899 -2.183,-2.138" fill="url(#s)" transform="matrix(.0882 0 0 -.0882 -2.25 63.63)"/><path d="m 312.711,537.481 c -4.043,-1.567 -5.115,-3.171 -5.154,-6.297 l 0,0 0,-169.973 c 0.042,-3.278 2.586,-5.825 5.785,-6.145 l 0,0 c 0.136,-0.014 148.449,0 148.449,0 l 0,0 c 29.577,0 53.551,23.71 53.551,53.29 l 0,0 c 0,29.581 -23.974,53.558 -53.551,53.558 l 0,0 c -7.338,0 -14.34,-1.488 -20.714,-4.159 l 0,0 c -4.263,48.263 -44.735,86.126 -94.106,86.126 l 0,0 c -12.082,0 -23.858,-2.375 -34.26,-6.4" fill="url(#t)" transform="matrix(.0882 0 0 -.0882 -2.25 63.63)"/></svg>