<svg xmlns="http://www.w3.org/2000/svg" width="50" height="50" viewBox="0 0 40 40"><path d="M6.156 2.4h27.746c1.974.402 3.566 2.124 3.698 4.157V33.58c-.204 1.95-1.716 3.654-3.654 4.02H5.844c-1.737-.49-3.155-1.924-3.444-3.728V6.14c.322-1.878 1.872-3.432 3.756-3.74z" fill="#6d8aa5"/><path d="M10.86 11.408c6.094-.002 12.188-.002 18.28 0 .004.732.004 1.464 0 2.196-6.094.002-12.188.002-18.283 0 0-.732 0-1.464.003-2.194zm.544 12.03c2.796-2.966 5.72-5.808 8.56-8.73 2.923 2.87 5.735 5.836 8.638 8.724-1.702.012-3.397 0-5.097.008-.006 2.567.006 5.133-.006 7.7h-7.073c-.006-2.567 0-5.135-.003-7.7-1.675-.005-3.346 0-5.02 0z" fill="#fff"/></svg>
