<svg xmlns="http://www.w3.org/2000/svg" width="38" height="38" viewBox="0 0 30.4 30.4"><path d="M3.244 0h23.962c1.705.347 3.08 1.834 3.194 3.59v23.338c-.176 1.684-1.482 3.156-3.156 3.472H2.974C1.474 29.977.25 28.738 0 27.18V3.23C.278 1.608 1.617.266 3.244 0z" fill="#6d8aa5"/><path d="M7.306 7.78c5.263-.002 10.526-.002 15.788 0 .003.632.003 1.264 0 1.896-5.263.002-10.526.002-15.79 0 0-.632 0-1.264.002-1.895zM7.776 18.17c2.415-2.562 4.94-5.017 7.393-7.54 2.524 2.478 4.953 5.04 7.46 7.534-1.47.01-2.934 0-4.402.007-.005 2.217.005 4.433-.005 6.65h-6.108c-.005-2.217 0-4.435-.002-6.65-1.447-.004-2.89 0-4.337 0z" fill="#fff"/></svg>
