<svg xmlns="http://www.w3.org/2000/svg" viewBox="0 0 80 80" width="80" height="80"><defs><clipPath><path d="m0 0h928.7v924h-928.7v-924"/></clipPath></defs><path d="m0 80h80v-80h-80v80" fill="#f4731c"/><g fill="#fff"><path d="m40 20.453c3.303 0 5.989 2.686 5.989 5.99 0 3.3-2.686 5.986-5.989 5.986-3.3 0-5.989-2.687-5.989-5.986 0-3.303 2.689-5.99 5.989-5.99m0 20.45c7.979 0 14.465-6.486 14.465-14.46 0-7.978-6.486-14.467-14.465-14.467-7.977 0-14.465 6.489-14.465 14.467 0 7.974 6.488 14.46 14.465 14.46"/><path d="m45.852 52.703c2.945-.671 5.785-1.836 8.4-3.479 1.98-1.248 2.576-3.864 1.329-5.843-1.246-1.984-3.861-2.581-5.844-1.333-5.925 3.726-13.554 3.725-19.475 0-1.983-1.248-4.598-.651-5.842 1.333-1.248 1.981-.652 4.596 1.327 5.843 2.615 1.641 5.455 2.808 8.4 3.479l-8.09 8.09c-1.653 1.655-1.653 4.338.002 5.992.828.827 1.912 1.241 2.995 1.241 1.085 0 2.17-.414 2.999-1.241l7.943-7.947 7.95 7.947c1.653 1.655 4.336 1.655 5.991 0 1.657-1.655 1.657-4.339 0-5.992l-8.09-8.09"/></g></svg>
