<svg xmlns="http://www.w3.org/2000/svg" width="120" height="120" viewBox="0 0 96 96"><path d="M7.467 11.977c.552-.105 1.11-.156 1.672-.158h77.716c2.015 0 4.032.678 5.6 1.956 2.094 1.64 3.35 4.282 3.3 6.942 0 17.74-.003 35.48 0 53.22.015 1.42.04 2.878-.45 4.232-1.13 3.464-4.578 5.975-8.22 6.007-25.984.006-51.97-.003-77.956.004-2.384.01-4.762-.976-6.414-2.702C1.106 79.85.204 77.566.24 75.28.242 57.016.233 38.752.245 20.49c-.034-4.09 3.2-7.85 7.222-8.513z" fill="#fafcfe" stroke="#000" stroke-width=".478"/><path d="M10.348 15.508c.41-.05.822-.064 1.234-.07 23.605.006 47.21 0 70.814.004 1.726.006 3.53-.14 5.154.567 2.628 1.003 4.6 3.637 4.57 6.487.015 16.928 0 33.858.008 50.786.05 1.86-.677 3.73-2.004 5.04-1.47 1.532-3.61 2.327-5.717 2.29-23.603-.008-47.206-.003-70.808-.003-1.69-.01-3.44.133-5.042-.512-2.718-.97-4.762-3.67-4.73-6.588-.028-16.78 0-33.562-.014-50.34-.005-1.1.093-2.225.536-3.242 1.002-2.42 3.418-4.124 5.998-4.42z" fill="#298dfb"/><path d="M16.5 28.3c9.502-.01 19.005-.01 28.505 0 3.75.155 7.806.92 10.578 3.653 2.705 2.736 3.438 6.746 3.582 10.45.058 3.162.005 6.328.027 9.494-.004 2.795-.178 5.627-.99 8.316-.657 2.12-1.842 4.14-3.66 5.466-3.042 2.24-7.005 2.555-10.663 2.468-9.128-.004-18.254.01-27.38-.006-.005-8.143-.022-16.285.01-24.427 3.7-.01 7.4-.01 11.1 0 .047 5.04-.013 10.077.03 15.116 5.19.05 10.38-.002 15.57.025 1.985.185 4.202-.697 4.963-2.658.573-1.276.726-2.694.717-4.08-.013-3.04.007-6.08-.01-9.12-.063-1.462-.22-3.073-1.243-4.213-.897-.95-2.287-1.165-3.534-1.19-9.2-.004-18.397.007-27.594-.006-.032-3.095-.017-6.192-.01-9.287zM69 28.306c3.497-.022 6.997-.013 10.495-.004.01 13.28.01 26.56 0 39.84-3.498.01-6.998.017-10.495-.005-.032-13.276-.032-26.555 0-39.83z" fill="#fafcfe"/></svg>
