<svg xmlns="http://www.w3.org/2000/svg" viewBox="0 0 120 120" height="120" width="120"><g transform="translate(-60-532.37)"><path stroke-linejoin="round" stroke="#000" stroke-linecap="round" stroke-width=".1" fill="#f8f8f8" d="m60 532.36h120v120h-120z"/><path fill="#201f21" d="m121 552.38c-.571.116-1 .644-1 1.25v52.5c0 .692-.558 1.25-1.25 1.25h-.75-1.75c-.692 0-1.25-.558-1.25-1.25v-2.5c0-.692-.558-1.25-1.25-1.25h-.75-1.75c-.692 0-1.25-.558-1.25-1.25v-1.75-.75c0-.692-.558-1.25-1.25-1.25h-12.5c-.692 0-1.25.558-1.25 1.25v2.5c0 .692-.558 1.25-1.25 1.25h-2.5c-.692 0-1.25.558-1.25 1.25v2.5c0 .692-.558 1.25-1.25 1.25h-2.5c-.692 0-1.25.558-1.25 1.25v12.5c0 .692.558 1.25 1.25 1.25h2.5.25c.571.116 1 .644 1 1.25v1.75.75c0 .692.558 1.25 1.25 1.25h2.5.25c.571.116 1 .644 1 1.25v1.75.75c0 .692.558 1.25 1.25 1.25h17.5c.692 0 1.25-.558 1.25-1.25v-2.5c0-.606.429-1.134 1-1.25h2 .75c.692 0 1.25-.558 1.25-1.25v-2.5c0-.606.429-1.134 1-1.25h2 .75c.692 0 1.25-.558 1.25-1.25v-47.5c0-.606.429-1.134 1-1.25h2 .75 4.25.75.25c.571.116 1 .644 1 1.25v2.5c0 .692.558 1.25 1.25 1.25h.75 1.75 2.5 2.5 2.5 6.75.75c.692 0 1.25-.558 1.25-1.25v-2.5c0-.692-.558-1.25-1.25-1.25h-.75-6.75c-.692 0-1.25-.558-1.25-1.25v-2.5c0-.692-.558-1.25-1.25-1.25h-.75-6.75c-.692 0-1.25-.558-1.25-1.25v-2.5c0-.692-.558-1.25-1.25-1.25h-.75-1.75c-.692 0-1.25-.558-1.25-1.25v-2.5c0-.692-.558-1.25-1.25-1.25h-.75-1.75c-.692 0-1.25-.558-1.25-1.25v-2.5c0-.692-.558-1.25-1.25-1.25h-2.5c-.087 0-.168-.017-.25 0"/></g></svg>
