<svg xmlns="http://www.w3.org/2000/svg" width="128" height="128" viewBox="0 0 96 96"><path fill="#ff5722" d="M 46.11 0.00 L 50.25 0.00 C 62.06 0.70 73.57 5.70 81.89 14.14 C 90.40 22.56 95.44 34.23 96.00 46.17 L 96.00 50.23 C 95.29 62.49 89.91 74.42 80.91 82.81 C 72.59 90.78 61.35 95.44 49.86 96.00 L 45.75 96.00 C 34.43 95.31 23.37 90.72 15.15 82.87 C 6.03 74.38 0.57 62.26 0.00 49.83 L 0.00 45.72 C 0.69 34.66 5.07 23.83 12.63 15.69 C 21.13 6.27 33.46 0.60 46.11 0.00 Z"/><path fill="#fefefe" d="M 48.03 26.41 C 52.82 26.43 57.60 26.40 62.39 26.43 C 62.39 29.77 62.39 33.12 62.39 36.46 C 59.50 36.46 56.62 36.46 53.74 36.48 C 53.71 44.34 53.81 52.21 53.70 60.07 C 53.58 67.13 44.65 71.89 38.61 68.38 C 33.93 65.97 32.14 59.45 35.04 55.02 C 37.59 50.62 43.70 49.15 48.03 51.79 C 48.02 43.33 48.01 34.87 48.03 26.41 Z"/></svg>